<svg id="Capa_1" enable-background="new 0 0 512 512" height="512" viewBox="0 0 512 512" width="512" xmlns="http://www.w3.org/2000/svg"><g><g><path d="m323.133 286.464h-307.481c-8.284 0-15-6.716-15-15v-254.861c0-8.284 6.716-15 15-15h46.699l38.837 10.773 38.837-10.773h183.108c8.284 0 15 6.716 15 15v254.861c0 8.284-6.716 15-15 15z" fill="#ffd064"/></g><g><path d="m323.133 1.603h-28.246v226.234c0 8.495-6.886 15.381-15.381 15.381h-278.854v28.246c0 8.284 6.716 15 15 15h307.481c8.284 0 15-6.716 15-15v-254.861c0-8.284-6.716-15-15-15z" fill="#ffc250"/></g><g><path d="m323.133 286.464h-63.006v-284.861h63.006c8.284 0 15 6.716 15 15v254.861c0 8.284-6.716 15-15 15z" fill="#ffc250"/></g><g><path d="m209.544 212.149h-158.672c-3.866 0-7-3.134-7-7v-80.864c0-3.866 3.134-7 7-7h158.672c3.866 0 7 3.134 7 7v80.864c0 3.866-3.134 7-7 7z" fill="#f4fbff"/></g><g><path d="m77.107 192.547c-4.248 0-7.69-3.443-7.69-7.69v-38.202c0-4.248 3.443-7.69 7.69-7.69s7.69 3.443 7.69 7.69v38.202c0 4.247-3.442 7.69-7.69 7.69z" fill="#2b4d66"/></g><g><path d="m117.037 192.547c-4.248 0-7.69-3.443-7.69-7.69v-38.202c0-4.248 3.443-7.69 7.69-7.69s7.69 3.443 7.69 7.69v38.202c.001 4.247-3.442 7.69-7.69 7.69z" fill="#2b4d66"/></g><g><path d="m157.365 192.547c-4.248 0-7.69-3.443-7.69-7.69v-38.202c0-4.248 3.443-7.69 7.69-7.69s7.69 3.443 7.69 7.69v38.202c0 4.247-3.443 7.69-7.69 7.69z" fill="#2b4d66"/></g><g><path d="m182.145 192.547c-4.248 0-7.69-3.443-7.69-7.69v-38.202c0-4.248 3.443-7.69 7.69-7.69 4.248 0 7.69 3.443 7.69 7.69v38.202c.001 4.247-3.442 7.69-7.69 7.69z" fill="#2b4d66"/></g><g><path d="m323.133 1.603h-28.246v226.234c0 8.495-6.886 15.381-15.381 15.381h-19.379v43.246h63.006c8.284 0 15-6.716 15-15v-254.861c0-8.284-6.716-15-15-15z" fill="#ebb044"/></g><g><path d="m62.351 1.603v69.993c0 .821.49 1.564 1.246 1.886l5.911 2.523c1.799.768 3.834.768 5.634 0l8.784-3.748c1.8-.768 3.835-.768 5.634 0l8.781 3.748c1.8.768 3.835.768 5.635 0l8.782-3.748c1.8-.768 3.835-.768 5.634 0l8.783 3.748c1.8.768 3.835.768 5.634 0l5.968-2.547c.756-.322 1.246-1.065 1.246-1.886v-69.969z" fill="#365e7d"/></g><g><g><path d="m122.336 1.603v69.97c0 .802-.472 1.522-1.197 1.856l6.037 2.576c1.8.768 3.835.768 5.634 0l5.968-2.547c.756-.322 1.246-1.065 1.246-1.886v-69.969z" fill="#2b4d66"/></g></g><g><path d="m497 510.397h-307.481c-8.284 0-15-6.716-15-15v-254.861c0-8.284 6.716-15 15-15h46.699l38.837 9.59 38.837-9.59h183.108c8.284 0 15 6.716 15 15v254.861c0 8.284-6.716 15-15 15z" fill="#ffe07d"/></g><g><path d="m497 225.536h-28.246v226.234c0 8.495-6.886 15.381-15.381 15.381h-278.854v28.246c0 8.284 6.716 15 15 15h307.481c8.284 0 15-6.716 15-15v-254.861c0-8.284-6.716-15-15-15z" fill="#ffd064"/></g><g><path d="m497 510.397h-63.006v-284.861h63.006c8.284 0 15 6.716 15 15v254.861c0 8.284-6.716 15-15 15z" fill="#ffd064"/></g><g><path d="m383.411 436.082h-158.672c-3.866 0-7-3.134-7-7v-80.864c0-3.866 3.134-7 7-7h158.672c3.866 0 7 3.134 7 7v80.864c0 3.866-3.134 7-7 7z" fill="#f4fbff"/></g><path d="m209.544 117.285h-6.347v74.517c0 3.866-3.134 7-7 7h-152.325v6.347c0 3.866 3.134 7 7 7h158.672c3.866 0 7-3.134 7-7v-80.864c0-3.866-3.134-7-7-7z" fill="#e4f6ff"/><path d="m383.411 341.218h-6.347v74.517c0 3.866-3.134 7-7 7h-152.325v6.347c0 3.866 3.134 7 7 7h158.672c3.866 0 7-3.134 7-7v-80.864c0-3.866-3.134-7-7-7z" fill="#e4f6ff"/><g><path d="m250.974 416.48c-4.248 0-7.69-3.443-7.69-7.69v-38.202c0-4.248 3.443-7.69 7.69-7.69s7.69 3.443 7.69 7.69v38.202c.001 4.247-3.442 7.69-7.69 7.69z" fill="#2b4d66"/></g><g><path d="m282.07 416.48c-4.248 0-7.69-3.443-7.69-7.69v-38.202c0-4.248 3.443-7.69 7.69-7.69 4.248 0 7.69 3.443 7.69 7.69v38.202c0 4.247-3.443 7.69-7.69 7.69z" fill="#2b4d66"/></g><g><path d="m307.435 416.48c-4.248 0-7.69-3.443-7.69-7.69v-38.202c0-4.248 3.443-7.69 7.69-7.69 4.248 0 7.69 3.443 7.69 7.69v38.202c0 4.247-3.442 7.69-7.69 7.69z" fill="#2b4d66"/></g><g><path d="m356.013 416.48c-4.248 0-7.69-3.443-7.69-7.69v-38.202c0-4.248 3.443-7.69 7.69-7.69 4.248 0 7.69 3.443 7.69 7.69v38.202c0 4.247-3.443 7.69-7.69 7.69z" fill="#2b4d66"/></g><g><path d="m497 225.536h-28.246v226.234c0 8.495-6.886 15.381-15.381 15.381h-19.379v43.246h63.006c8.284 0 15-6.716 15-15v-254.861c0-8.284-6.716-15-15-15z" fill="#ffc250"/></g><g><path d="m236.218 225.536v72.046c0 .821.49 1.564 1.246 1.886l5.911 2.523c1.799.768 3.834.768 5.634 0l8.784-3.748c1.8-.768 3.835-.768 5.634 0l8.781 3.748c1.8.768 3.835.768 5.635 0l8.782-3.748c1.8-.768 3.835-.768 5.634 0l8.783 3.748c1.8.768 3.835.768 5.634 0l5.968-2.547c.756-.322 1.246-1.065 1.246-1.886v-72.023h-77.672z" fill="#365e7d"/></g><g><g><path d="m296.204 225.536v72.023c0 .802-.472 1.522-1.197 1.856l6.037 2.576c1.8.768 3.835.768 5.634 0l5.968-2.547c.756-.322 1.246-1.065 1.246-1.886v-72.023h-17.688z" fill="#2b4d66"/></g></g><g><path d="m503.758 105.005c-55.335-43.132-131.564-46.588-190.242-10.355-2.241 1.384-1.237 4.808 1.396 4.777 38.51-.463 77.167 13.994 106.551 43.378 7.635 7.635 14.252 15.901 19.872 24.623z" fill="#9dc6fb"/></g><g><path d="m313.516 94.651c58.678-36.233 134.907-32.777 190.242 10.354l-18.204 18.204c-39.842-24.693-87.809-31.07-131.844-19.115-12.706-3.264-25.76-4.824-38.798-4.667-2.633.032-3.637-3.393-1.396-4.776z" fill="#80b4fb"/></g><g><path d="m511.422 174.408v-83.612c0-3.566-4.313-5.35-6.832-2.825l-83.425 83.623c-2.515 2.521-.729 6.826 2.832 6.825l83.425-.012c2.209 0 4-1.79 4-3.999z" fill="#80b4fb"/></g><g><path d="m504.59 87.971-24.272 24.329v66.111l27.003-.004c2.265 0 4.101-1.837 4.101-4.102v-83.51c0-3.565-4.313-5.348-6.832-2.824z" fill="#61a2f9"/></g><g><g><path d="m141.92 460.533c-69.627-8.629-125.972-60.088-141.843-127.2-.606-2.563 2.525-4.275 4.364-2.391 26.904 27.558 64.46 44.67 106.016 44.67 10.798 0 21.322-1.166 31.463-3.359z" fill="#9dc6fb"/></g><g><path d="m.077 333.333c15.871 67.112 72.217 118.57 141.843 127.2v-25.745c-45.633-10.712-84.061-40.121-106.744-79.711-11.293-6.677-21.626-14.804-30.735-24.134-1.839-1.885-4.97-.173-4.364 2.39z" fill="#80b4fb"/></g><g><path d="m197.13 416.383-59.328 58.681c-2.526 2.499-6.813.709-6.813-2.844v-117.362c0-3.553 4.287-5.342 6.813-2.844l59.328 58.681c1.582 1.566 1.582 4.123 0 5.688z" fill="#80b4fb"/></g><g><path d="m197.056 410.623-19.845-19.629-46.223 45.719v35.507c0 3.553 4.287 5.342 6.813 2.844l59.255-58.609c1.623-1.605 1.623-4.227 0-5.832z" fill="#61a2f9"/></g></g></g></svg>